<svg width="100" height="100" viewBox="0 0 100 100" fill="none" xmlns="http://www.w3.org/2000/svg">
<style>
.base {
    fill: white;
    @media (prefers-color-scheme: dark) {
        fill: #1f1f1f;
    }
}
</style>
<defs>
<linearGradient id="p_1" x1="74.6891" y1="66.4364" x2="74.6891" y2="12.7364" gradientUnits="userSpaceOnUse">
<stop stop-color="#B4E6FF"/>
<stop offset="1" stop-color="#00BE6E"/>
</linearGradient>
<linearGradient id="p_2" x1="59.6346" y1="87.109" x2="59.6346" y2="78.2726" gradientUnits="userSpaceOnUse">
<stop stop-color="#B4E6FF"/>
<stop offset="1" stop-color="#00BE6E"/>
</linearGradient>
<linearGradient id="p_3" x1="53.5891" y1="66.3272" x2="53.5891" y2="48.1636" gradientUnits="userSpaceOnUse">
<stop stop-color="#B4E6FF"/>
<stop offset="1" stop-color="#00BE6E"/>
</linearGradient>
</defs>
<rect width="100" height="100" rx="10" class="base"/>
<path d="M74.8891 66.4364H61.7437C66.3982 66.4364 72.7346 62.7182 76.9164 55.3455C82.1709 46.0818 83.2527 36.0364 79.88 27.7727C75.9709 18.2091 66.6982 12.7273 54.4346 12.7273H67.58C79.8437 12.7273 89.1164 18.2091 93.0255 27.7727C96.3982 36.0273 95.3164 46.0727 90.0618 55.3455C85.88 62.7182 79.5437 66.4364 74.8891 66.4364Z" fill="url(#p_1)"/>
<path d="M74.071 66.4362H60.9255C60.0073 66.4362 59.1528 66.2998 58.3891 66.0089C56.571 65.3362 55.2891 63.9271 54.6891 61.9271C53.7073 58.718 54.4073 54.1998 56.7528 48.4725H69.8982C67.5528 54.1998 66.8528 58.718 67.8346 61.9271C68.4346 63.9271 69.7164 65.3453 71.5346 66.0089C72.2982 66.2907 73.1528 66.4362 74.071 66.4362Z" fill="#005ADC"/>
<path d="M58.1073 86.6726C54.6709 87.3271 45.5891 87.0544 45.5891 87.0544C48.8255 87.0544 58.5709 81.8089 61.7709 78.2726H73.68C71.38 82.0726 64.1346 85.5271 58.1073 86.6726Z" fill="url(#p_2)"/>
<path d="M68.5528 35.4546H55.4073C54.5164 33.8182 52.6983 32.8455 50.2892 32.7091C50.0983 32.7 49.9073 32.6909 49.7164 32.6909H62.8619C63.0528 32.6909 63.2437 32.6909 63.4346 32.7091C65.8437 32.8364 67.6619 33.8182 68.5528 35.4546Z" fill="#B4E6FF"/>
<path d="M38.6437 66.1817C38.1437 66.2817 37.6437 66.3363 37.1528 66.3363H51.4346C57.3528 66.3363 62.6619 58.9818 69.1073 49.5363L70.0437 48.1636H56.8982L55.9619 49.5363C50.0528 58.1908 44.1528 65.0908 38.6437 66.1817Z" fill="url(#p_3)"/>
<path d="M52.38 87.1181H39.2346C27.4709 87.1181 18.8255 84.1091 12.9618 78.0182C8.8073 73.7 6.18912 67.4091 5.58912 60.3091C4.96184 52.8363 6.53458 45.0727 10.1528 37.8454C13.4891 31.1818 19.08 24.9636 25.8891 20.3454C33.2073 15.3727 41.1255 12.7454 48.7982 12.7363H61.9437C54.2709 12.7454 46.3437 15.3727 39.0346 20.3454C32.2255 24.9636 26.6437 31.1818 23.2982 37.8454C19.68 45.0636 18.0982 52.8363 18.7346 60.3091C19.3346 67.4091 21.9528 73.7 26.1073 78.0182C31.9709 84.1091 40.6164 87.1181 52.38 87.1181Z" fill="#005ADC"/>
<path d="M46.0528 66.3636H32.9073C31.371 66.3636 29.9892 65.9727 28.8437 65.1455C26.4255 63.4091 25.1619 60.3909 25.2983 56.6546C25.4983 51.0364 28.7255 44.6364 33.9346 39.5364C38.3528 35.2091 43.4801 32.6909 47.7619 32.6909H60.9073C56.6255 32.6909 51.4983 35.2091 47.0801 39.5364C41.871 44.6364 38.6437 51.0364 38.4437 56.6546C38.3073 60.3909 39.571 63.4091 41.9892 65.1455C43.1437 65.9727 44.5164 66.3636 46.0528 66.3636Z" fill="#005ADC"/>
</svg>
