<svg width="128" height="128" viewBox="0 0 128 128" fill="none" xmlns="http://www.w3.org/2000/svg">
<path d="M27.7456 15.2482C42.4205 26.2654 58.2042 48.6042 64 60.5911C69.7958 48.6042 85.5795 26.2654 100.254 15.2482C110.843 7.29876 128 1.14787 128 20.7203C128 24.6291 125.759 53.557 124.444 58.2538C119.875 74.5812 103.226 78.7457 88.4162 76.2251C114.304 80.631 120.889 95.2248 106.667 109.819C79.6559 137.535 67.8447 102.864 64.8183 93.9806C64.2634 92.352 64.0038 91.5901 64 92.238C63.9962 91.5901 63.7366 92.352 63.1817 93.9806C60.1553 102.864 48.3441 137.535 21.3333 109.819C7.11112 95.2248 13.6964 80.631 39.5838 76.2251C24.7736 78.7457 8.12473 74.5812 3.55556 58.2538C2.24118 53.557 0 24.6291 0 20.7203C0 1.14787 17.1571 7.29876 27.7456 15.2482Z" fill="#006AFF"/>
</svg>
