<svg width="662" height="387" viewBox="0 0 662 387" fill="none" xmlns="http://www.w3.org/2000/svg">
<defs>
<linearGradient id="g_1" x1="414.21" y1="178.62" x2="414.21" y2="168.4" gradientUnits="userSpaceOnUse">
<stop stop-color="#B4E6FF"/>
<stop offset="1" stop-color="#00BE6E"/>
</linearGradient>
<linearGradient id="g_2" x1="375.48" y1="178.71" x2="375.48" y2="133.89" gradientUnits="userSpaceOnUse">
<stop stop-color="#B4E6FF"/>
<stop offset="1" stop-color="#00BE6E"/>
</linearGradient>
<linearGradient id="g_3" x1="364.55" y1="98.5701" x2="364.55" y2="121.15" gradientUnits="userSpaceOnUse">
<stop stop-color="#B4E6FF"/>
<stop offset="1" stop-color="#00BE6E"/>
</linearGradient>
<linearGradient id="g_4" x1="327.35" y1="178.73" x2="327.35" y2="150.46" gradientUnits="userSpaceOnUse">
<stop stop-color="#B4E6FF"/>
<stop offset="1" stop-color="#00BE6E"/>
</linearGradient>
<linearGradient id="g_5" x1="273.64" y1="243.31" x2="273.64" y2="290.27" gradientUnits="userSpaceOnUse">
<stop stop-color="#B4E6FF"/>
<stop offset="1" stop-color="#00BE6E"/>
</linearGradient>
<linearGradient id="g_6" x1="529.6" y1="178.57" x2="529.6" y2="125.88" gradientUnits="userSpaceOnUse">
<stop stop-color="#B4E6FF"/>
<stop offset="1" stop-color="#00BE6E"/>
</linearGradient>
<linearGradient id="g_7" x1="492.94" y1="178.6" x2="492.94" y2="126.3" gradientUnits="userSpaceOnUse">
<stop stop-color="#B4E6FF"/>
<stop offset="1" stop-color="#00BE6E"/>
</linearGradient>
<linearGradient id="g_8" x1="457.88" y1="177.42" x2="457.88" y2="135.19" gradientUnits="userSpaceOnUse">
<stop stop-color="#B4E6FF"/>
<stop offset="1" stop-color="#00BE6E"/>
</linearGradient>
<linearGradient id="g_9" x1="146.03" y1="178.5" x2="146.03" y2="9.89001" gradientUnits="userSpaceOnUse">
<stop stop-color="#B4E6FF"/>
<stop offset="1" stop-color="#00BE6E"/>
</linearGradient>
<linearGradient id="g_10" x1="314.49" y1="98.5701" x2="314.49" y2="121.15" gradientUnits="userSpaceOnUse">
<stop stop-color="#B4E6FF"/>
<stop offset="1" stop-color="#00BE6E"/>
</linearGradient>
<linearGradient id="g_11" x1="278.48" y1="178.73" x2="278.48" y2="149.97" gradientUnits="userSpaceOnUse">
<stop stop-color="#B4E6FF"/>
<stop offset="1" stop-color="#00BE6E"/>
</linearGradient>
<linearGradient id="g_12" x1="106.28" y1="206.26" x2="106.28" y2="237.57" gradientUnits="userSpaceOnUse">
<stop stop-color="#B4E6FF"/>
<stop offset="1" stop-color="#00BE6E"/>
</linearGradient>
<linearGradient id="g_13" x1="92.86" y1="298.55" x2="92.86" y2="254.92" gradientUnits="userSpaceOnUse">
<stop stop-color="#B4E6FF"/>
<stop offset="1" stop-color="#00BE6E"/>
</linearGradient>
<linearGradient id="g_14" x1="32.63" y1="320.09" x2="32.63" y2="376.01" gradientUnits="userSpaceOnUse">
<stop stop-color="#B4E6FF"/>
<stop offset="1" stop-color="#00BE6E"/>
</linearGradient>
<linearGradient id="g_15" x1="316.91" y1="295.52" x2="316.91" y2="274.56" gradientUnits="userSpaceOnUse">
<stop stop-color="#B4E6FF"/>
<stop offset="1" stop-color="#00BE6E"/>
</linearGradient>
<linearGradient id="g_16" x1="262.13" y1="294.26" x2="262.13" y2="188.14" gradientUnits="userSpaceOnUse">
<stop stop-color="#B4E6FF"/>
<stop offset="1" stop-color="#00BE6E"/>
</linearGradient>
<linearGradient id="g_17" x1="209.71" y1="294.26" x2="209.71" y2="208.11" gradientUnits="userSpaceOnUse">
<stop stop-color="#B4E6FF"/>
<stop offset="1" stop-color="#00BE6E"/>
</linearGradient>
<linearGradient id="g_18" x1="169.97" y1="296.41" x2="169.97" y2="264.07" gradientUnits="userSpaceOnUse">
<stop stop-color="#B4E6FF"/>
<stop offset="1" stop-color="#00BE6E"/>
</linearGradient>
<linearGradient id="g_19" x1="551.44" y1="299.26" x2="551.44" y2="289.56" gradientUnits="userSpaceOnUse">
<stop stop-color="#B4E6FF"/>
<stop offset="1" stop-color="#00BE6E"/>
</linearGradient>
<linearGradient id="g_20" x1="509.68" y1="243.81" x2="509.68" y2="277.69" gradientUnits="userSpaceOnUse">
<stop stop-color="#B4E6FF"/>
<stop offset="1" stop-color="#00BE6E"/>
</linearGradient>
<linearGradient id="g_21" x1="474.57" y1="295.9" x2="474.57" y2="243.81" gradientUnits="userSpaceOnUse">
<stop stop-color="#B4E6FF"/>
<stop offset="1" stop-color="#00BE6E"/>
</linearGradient>
<linearGradient id="g_22" x1="432.37" y1="296.01" x2="432.37" y2="254.87" gradientUnits="userSpaceOnUse">
<stop stop-color="#B4E6FF"/>
<stop offset="1" stop-color="#00BE6E"/>
</linearGradient>
<linearGradient id="g_23" x1="369.9" y1="246.43" x2="369.9" y2="295.59" gradientUnits="userSpaceOnUse">
<stop stop-color="#B4E6FF"/>
<stop offset="1" stop-color="#00BE6E"/>
</linearGradient>
<linearGradient id="g_24" x1="356.33" y1="275.96" x2="356.33" y2="243.72" gradientUnits="userSpaceOnUse">
<stop stop-color="#B4E6FF"/>
<stop offset="1" stop-color="#00BE6E"/>
</linearGradient>
<linearGradient id="g_25" x1="245.3" y1="155.7" x2="245.3" y2="96.6301" gradientUnits="userSpaceOnUse">
<stop stop-color="#B4E6FF"/>
<stop offset="1" stop-color="#00BE6E"/>
</linearGradient>
<linearGradient id="g_26" x1="228.74" y1="178.44" x2="228.74" y2="168.72" gradientUnits="userSpaceOnUse">
<stop stop-color="#B4E6FF"/>
<stop offset="1" stop-color="#00BE6E"/>
</linearGradient>
<linearGradient id="g_27" x1="222.09" y1="155.58" x2="222.09" y2="135.6" gradientUnits="userSpaceOnUse">
<stop stop-color="#B4E6FF"/>
<stop offset="1" stop-color="#00BE6E"/>
</linearGradient>
<linearGradient id="g_28" x1="591.6" y1="296.6" x2="591.6" y2="267.78" gradientUnits="userSpaceOnUse">
<stop stop-color="#B4E6FF"/>
<stop offset="1" stop-color="#00BE6E"/>
</linearGradient>
<linearGradient id="g_29" x1="526.34" y1="325.38" x2="526.34" y2="365.27" gradientUnits="userSpaceOnUse">
<stop stop-color="#B4E6FF"/>
<stop offset="1" stop-color="#00BE6E"/>
</linearGradient>
</defs>
<path d="M659.32 299.69C655.34 290.51 649.26 280.05 638.11 286.66C636.2 286.39 634.58 285.25 632.7 284.86C628.34 283.72 623.45 285.9 621.44 290.07C616.72 300.44 630.44 304.08 627.08 316.34C624.85 324.8 616.58 331.3 607.99 332.34C604.5 331.79 601 330.7 597.65 329.58C596.96 329.34 596.58 328.84 596.95 328.1C602.33 318.73 607.32 308.41 611.26 299.07C614.45 291.5 617.69 283.21 620.02 276.87C621.69 272.84 623.43 269.17 623.98 264.73C626.46 251.98 620.8 237.69 607.5 234.79C603.66 233.76 599.89 233.95 595.94 233.94C591.1 233.97 586.13 233.87 581.35 233.99C568.39 234.45 557.82 242.83 550.13 252.2C549.91 252.25 549.75 252.01 549.61 251.59C549 249.61 548.17 247.64 546.99 245.91C543.08 239.85 536.23 237.14 529.36 236.35C520.04 234.8 510.89 232.2 501.81 236.05C498.02 236.09 492.42 234.45 488.31 234.05C485.86 233.63 483.11 234.41 480.73 234.83C483.32 229.25 482.53 223.06 476.38 220.11C474.84 219.03 471.34 219.61 470.25 218.58C469.69 217.61 469.86 216.22 469.89 215.18C470.19 211.73 471.9 207.87 470.28 204.46C467.72 197.43 457.42 196.09 453.17 202.23C451.03 205.27 450.73 209.63 448.7 212.58C445.45 218.48 441.69 218.85 435.68 219.74C431.52 221.06 428.64 225.35 428.94 229.69C428.97 230.58 429.06 231.03 428.35 230.94C415.82 228.53 411.76 227.96 403 238.17C395.15 238.37 386.44 234.08 379.06 238.99C377.11 240.31 375.48 237.93 373.61 237.48C371.49 236.6 369.19 236.32 367 235.93C354.26 233.75 345.49 230.82 333.32 238.15C328.21 241.06 323.61 245.02 319.84 249.48C319.55 249.79 319.28 249.98 319.04 249.94C315.06 242.73 309.73 237.78 301.12 236.74C299.73 236.49 297.12 236.12 296.14 235.89C295.32 235.68 296.03 234.71 296.31 234.13C303.14 220.64 308.93 212.2 311.81 198.64C312.21 195.02 311.59 191.56 310.01 188.34C309.53 187.59 309.46 186.66 310.44 186.39C313.13 185.86 315.58 182.75 318.4 183.78C326.57 186.67 334.58 187.2 342.83 188.61C346.92 188.99 351.21 188.51 355.51 187.95C358 188.15 360.47 188.71 363.03 188.64C367.42 188.69 371.88 187.88 375.9 186.32C378.38 185.38 380.77 184.11 382.96 182.74C383.68 182.31 384.37 182.26 385.11 182.63C388.52 184.7 392.55 185.54 396.42 186.12C400.68 186.82 406.55 187.9 410.8 188.45C416.27 189 421.4 187.66 426.58 186.4C430.73 187.12 434.77 187.5 438.97 187.37C449.88 187.48 459.91 188.2 469.64 182.17C470.2 182.06 470.59 182.6 470.83 183.09C473.32 188.53 479.46 188.84 484.71 188.54C496.39 188.72 502.45 189.54 504.77 176.95C506.99 168.41 509.09 159.53 512.54 151.41C513.89 148.4 515.08 144.99 516.99 142.38C517.07 142.36 517.09 142.51 517.06 142.77C515.35 154.16 508.89 166.1 512.84 177.59C514.97 183.55 520.82 188.06 527.21 188.43C531.44 188.61 536.68 188.47 540.77 188.51C547.36 188.87 553.79 187.57 559.18 183.48C567.8 178.05 579.35 154.64 566.85 148.49C563.58 146.65 560.02 147.87 556.77 148.81C555.92 148.73 555.17 148.2 554.32 147.96C553.42 147.56 552.2 147.73 551.38 147.2C550.64 145.87 551.67 143.97 551.62 142.4C552.3 136.22 551.7 129.54 547.79 124.43C540.54 115.11 530.65 115.81 519.29 115.97C517.17 115.97 515.65 115.97 513.61 115.97C510.04 115.61 506.4 117.46 502.83 117.01C500.25 116.44 498.68 116.32 496.52 116.39C489 116.56 483.4 116.12 477.03 116.55C475.95 116.73 474.93 116.43 474.02 115.83C470.67 113.81 466.68 112.85 462.79 112.65C458.26 112.48 452.91 112.67 448.39 112.6C444.01 112.56 439.76 112.46 435.54 113.75C433.17 114.46 430.85 115.47 428.67 116.67C428.22 116.93 426.21 117.83 427.02 116.46C432.41 111.16 429.5 101.03 421.9 99.78C418.88 99.24 417.44 100.14 417.68 96.37C417.85 92.49 420.11 88.05 418.08 84.24C415.62 78.33 407.22 76.5 402.57 80.86C399.73 83.14 399.38 86.89 397.92 90.04C396.14 94.05 392.93 98.32 388.18 98.9C386.46 99.09 385.07 98.99 383.37 99.55C382.42 99.92 381.59 99.4 381.01 98.63C377.97 94.94 373.61 92.42 368.99 91.41C359.96 90.25 350.83 86.84 341.68 88.77C337.14 89.83 332.75 91.94 329.14 94.87C328.68 95.2 328.24 95.38 327.78 95.29C323.76 92.69 318.91 91.01 314.08 90.57C309.06 89.69 303.8 88.61 298.69 88.19C288.22 87.54 277.56 93.79 272.21 102.67C271.64 103.81 271.1 103.89 270.47 102.93C261.29 89.12 244.98 85.85 229.27 86.73C225.39 86.82 222.24 86.66 218.82 86.73C217.52 86.66 216.72 86.82 215.72 86.7C215.27 86.56 215.3 86.22 215.64 85.58C233.17 57.35 225.98 16.53 190.77 7.47997C179.49 4.62997 168.18 -0.0800258 156.31 -2.57916e-05C135.08 -0.210026 113.6 10.52 102.95 29.19C95.2999 41.97 92.2899 59.09 95.4499 74.1C95.9799 76.82 96.6899 79.52 97.4399 82.11C97.6099 82.72 97.5099 83.23 96.7899 83.34C90.4899 83.29 85.2899 89.79 87.2099 95.94C89.3899 103.37 102.1 107.21 108.64 110.01C110.08 110.62 110.44 112.06 111.15 113.32C115.19 121.29 119.66 130.43 122.6 139C124.47 145.24 126.13 151.09 124.71 157.53C123.46 161.24 118.38 162.65 114.88 162.02C111.21 158.96 110.52 153.74 109.85 149.25C108.89 142.35 100.29 138.83 94.5999 142.66C93.0899 143.07 91.9399 141.27 90.5699 140.57C85.1599 135.7 75.4799 138.72 74.2599 146C73.9099 158.68 82.9199 173.97 93.6199 180.67C103.71 187.58 116.39 189.14 128.31 188.58C141.36 188.84 153.15 180.97 158.1 168.44C159.22 165.98 159.69 162.88 160.55 160.17C166.82 179.37 184.94 188.63 204.48 188.39C212.42 188.24 220.94 188.96 228.83 187.6C239.07 185.27 251.75 179.57 254.03 168.52C256.77 175.08 261.85 180.86 268.54 183.59C269.61 183.97 269.79 184.56 268.98 185.35C262 192.94 261.93 203.93 258.09 213.25C257.3 213.69 256.37 212.9 255.49 212.78C252.28 212.14 248.8 212.59 245.43 212.46C244.24 212.43 243.56 212.73 243.72 211.26C243.93 199.82 232.62 200.58 223.47 198.75C213.26 196.43 209.65 202.53 208.47 211.82C208.1 214.31 207.76 213.48 205.53 213.63C202.33 213.67 199.86 213.48 196.81 213.92C189.09 215.22 178.83 220.63 180.22 229.7C180.6 233.02 183.64 236.06 186.4 237.26C167.42 233.98 155.96 230.06 139.59 244.4C139 244.93 138.64 244.94 138.74 243.98C139.43 233.95 135.34 223.73 129.49 216.18C118.48 200.84 104.34 199.62 87.2199 196.91C39.9099 185.24 -6.46006 253.27 25.4799 291.58C36.8999 304.5 55.6599 304.82 71.3899 307.74C75.8699 308.49 80.5199 308.69 84.9499 308.27C85.8599 308.14 86.6599 308.39 86.2199 309.5C80.3099 326.22 73.9299 345.63 60.6599 357.24C57.3399 359.87 53.1999 361.93 49.4799 362.87C48.4499 363.19 47.4199 363.02 46.5899 362.33C43.9399 360.33 41.8999 357.66 40.4699 354.6C37.4899 348.26 37.4399 339.74 39.0599 332.64C41.7599 325.82 38.9999 317.77 30.9999 317.05C28.6899 316.83 26.4799 317.59 24.4399 318.75C23.9799 318.96 23.4699 319.35 22.9999 319.08C22.7699 318.93 22.5699 318.55 22.2999 318.07C19.8199 311.29 11.9499 307.57 5.90994 312.43C2.17994 315.37 1.80994 320.64 0.919943 324.96C-2.43006 345.02 3.03994 369.06 22.4199 378.85C31.6199 383.49 42.1799 383.82 53.5299 385.99C102.56 392.89 118.65 335.19 129.51 297.76C129.78 296.63 130.31 296.62 130.98 297.32C133.77 300.06 137.38 302.05 141.22 302.99C144.76 303.67 153.82 305.26 159.05 306.07C165.71 307.09 172.58 305.11 178.19 301.57C179.36 300.56 181.52 301.21 182.67 301.46C192.31 302.87 203.34 306.71 212.41 301.05C213.89 300.18 215.15 300.85 216.65 301.03C220.17 301.54 226.72 302.8 230.76 303.42C236.03 304.74 241.51 304.15 246.58 302.39C252.03 302.72 258.37 304.68 263.79 304.95C269.03 305.05 271.93 301 273.53 296.43C275.14 292.88 279.69 291.63 282.98 293.66C286.69 296.75 289.44 301.03 294.63 302.09C300.52 303.49 307.27 304.45 313.38 305.38C317.87 305.72 322.03 304.61 326.06 302.47C327.69 301.49 329.74 302.3 331.45 302.52C334.23 303.16 340.92 304.02 345.15 304.85C345.72 304.88 346.59 305.27 346.79 304.79C351.14 306.28 356.45 305.3 361.1 304.34C373.68 301.71 383.72 292.68 391.23 283.06C391.53 286.66 391.62 290.52 393.49 293.95C396.31 299.98 402.49 303.22 408.89 303.82C413.91 304.46 419.09 306.02 423.96 305.94C429.24 306.12 433.88 303.61 438.53 301.66C440.37 301.81 442.37 302.87 444.04 303.05C454.86 304.66 466.08 308.94 476.47 301.16C477.52 300.23 478.59 301.16 479.49 301.78C480.58 302.48 482.12 302.97 482.86 303.11C487.69 303.88 493.71 305.14 498.78 305.71C505.23 306.1 509.61 300.05 509.28 294.01C510.56 288.02 511.44 281.78 513.16 275.71C513.76 273.72 512.95 277.4 512.92 278.03C509.66 293.75 519.47 304.98 534.85 306.72C544.2 308.21 554.03 311.08 563.05 307.1C565.29 305.99 567.67 306.62 570.14 306.55C570.46 306.56 571.08 306.65 571.1 306.97C571.13 307.11 571.1 307.28 571.02 307.48C569.56 310.49 567.93 313.46 566.3 316.36C565.84 317.33 564.82 317.67 563.83 317.31C555.48 315 546 315.5 537.3 315.48C528.52 315.18 519.74 316.84 511.75 320.89C491.49 329.75 484.26 359.64 505.14 371.73C512.93 376.43 523.18 375.02 531.95 375.22C551.18 376.28 568.52 365.03 580.7 351C581.32 350.32 582.07 350.1 582.92 350.31C588.36 351.74 594.39 352.96 600.03 353.14C606.08 353.19 612.82 353.33 618.84 353.06C645.27 352.3 669.98 326.58 659.38 299.85L659.31 299.68L659.32 299.69Z" fill="white"/>
<path d="M586.48 335.74C594.41 338.88 602.66 341.77 611.73 342.91C613.49 343.13 615.25 343.24 617 343.24H602.54C600.79 343.24 599.04 343.13 597.27 342.91C586.15 341.51 575.98 337.62 566.15 333.39C556.32 329.15 546.14 325.38 535.8 325.38H550.26C560.6 325.38 570.48 329.26 580.65 333.39C580.82 333.46 580.98 333.52 581.14 333.59C582.9 334.31 584.68 335.03 586.47 335.74H586.48Z" fill="#B4E6FF"/>
<path d="M232.38 293.49L217.88 291.03C215.58 290.64 213.57 289.5 211.89 287.63C206.3 281.44 206.81 272.22 209.47 258.25L223.97 260.71C221.31 274.68 220.8 283.9 226.39 290.09C228.07 291.96 230.08 293.1 232.38 293.49Z" fill="#005ADC"/>
<path d="M411.42 178.43L396.91 176C397.63 176.12 398.37 176.18 399.12 176.18C399.23 176.18 399.35 176.18 399.46 176.18C409.94 177.38 416.96 175.09 419.55 168.4L431.5 169.66C427.19 177.74 418.88 178.48 413.97 178.61C413.86 178.61 413.74 178.61 413.63 178.61C412.88 178.61 412.15 178.55 411.42 178.43Z" fill="url(#g_1)"/>
<path d="M409.94 178.16L395.43 175.73C392.21 175.19 389.31 173.53 387.5 171.08C382.52 164.37 384.02 152.58 387.84 137.75L402.05 140.6C398.23 155.43 397.03 166.8 402.01 173.51C403.82 175.95 406.72 177.62 409.94 178.16Z" fill="#005ADC"/>
<path d="M356.14 177.5C353.15 176.5 347.46 174.51 347.46 174.51C348.63 174.61 350.19 174.71 351.29 174.71C374.19 174.66 383.82 150.78 388.99 133.9L403.5 136.33C398.32 153.21 385.02 177.09 366.24 178.62C362.58 178.92 359.13 178.5 356.13 177.5H356.14Z" fill="url(#g_2)"/>
<path d="M352.21 98.5701L366.72 100.91C370.18 101.47 373.07 103.24 374.93 106.05C377.75 110.33 377.49 116.12 374.23 121.15L359.72 118.81C362.97 113.78 363.24 107.98 360.42 103.71C358.56 100.89 355.66 99.1201 352.21 98.5701Z" fill="url(#g_3)"/>
<path d="M344.38 178.73L329.87 176.39C323.77 175.44 316.96 172.77 314.48 169.03C310.62 163.2 309.72 158.19 310.66 150.45L321.34 152.73C321.89 158.9 323.86 165.26 328.26 170.25C333.05 175.69 338.27 177.77 344.37 178.72L344.38 178.73Z" fill="url(#g_4)"/>
<path d="M282.15 243.51L296.65 245.97C295.91 245.84 295.13 245.78 294.33 245.78C289.97 245.78 284.74 247.76 279.83 253.26C272.87 261.06 270.17 271.3 266.41 285.47C266 287.03 265.57 288.63 265.14 290.27L250.64 287.81C251.08 286.17 251.5 284.57 251.91 283.01C255.66 268.84 258.37 258.6 265.33 250.8C270.24 245.29 275.47 243.32 279.83 243.32C280.64 243.32 281.41 243.39 282.15 243.51Z" fill="url(#g_5)"/>
<path d="M133.97 106.72L115.89 101.6C109.39 99.76 103.16 96.97 97.4399 93.24L115.52 98.36C121.24 102.09 127.48 104.88 133.97 106.72Z" fill="#005ADC"/>
<path d="M545.2 178.57H529.06C533.27 178.57 550.44 175.46 551.98 157.36L555.06 163.2L563.2 157.36C561.26 173.51 551.26 178.6 545.2 178.57Z" fill="#005ADC"/>
<path d="M543.52 178.57H529.06C526.21 178.49 524.05 176.97 522.92 174.39C521.07 170.18 522.96 163.05 524.96 155.49C526.93 148.03 528.97 140.31 527.83 134.38C527.03 130.21 523.91 127.25 519.27 126.25C518.14 126.01 516.93 125.88 515.67 125.88H530.13C531.39 125.88 532.6 126 533.73 126.25C538.37 127.25 541.49 130.22 542.29 134.38C543.43 140.32 541.39 148.03 539.42 155.49C537.42 163.05 535.54 170.18 537.38 174.39C538.51 176.97 540.67 178.49 543.52 178.57Z" fill="url(#g_6)"/>
<path d="M499.3 161H484.84C487.63 152.18 491.34 142.12 495.29 136.14C499.96 129.08 507.65 125.88 514.1 125.88H528.56C522.11 125.88 514.42 129.08 509.75 136.14C505.8 142.12 502.08 152.18 499.3 161Z" fill="#005ADC"/>
<path d="M494.79 178.6H480.33C480.35 178.51 480.98 175.89 482.07 171.9C484.87 161.08 490.13 140.52 490.88 136.14C491.59 132.01 490.51 128.75 487.93 127.19C486.93 126.59 485.8 126.3 484.62 126.3H499.08C500.26 126.3 501.4 126.59 502.39 127.19C504.97 128.75 506.05 132.01 505.34 136.14C504.6 140.52 499.33 161.08 496.53 171.9C495.44 175.88 494.81 178.51 494.79 178.6Z" fill="url(#g_7)"/>
<path d="M481.87 136.41C483.92 133.48 485.87 130.74 487.8 129.05C489.84 127.25 492.17 126.31 494.34 126.31H479.88C477.71 126.31 475.38 127.25 473.34 129.05C471.31 130.84 469.24 133.8 467.06 136.92C465.71 138.84 464.31 140.84 462.83 142.73C459.1 147.39 454.81 151.31 449.31 151.7H463.77C469.27 151.31 473.56 147.39 477.29 142.73C478.77 140.84 480.17 138.85 481.52 136.92C481.64 136.75 481.76 136.58 481.88 136.41H481.87Z" fill="#005ADC"/>
<path d="M450.61 173.6C446.69 176.07 442.21 177.42 437.79 177.42H452.25C459.15 177.42 466.17 174.12 471.02 168.47C476.4 162.21 479.17 151.84 477.46 144.34C477.26 143.46 477 142.63 476.69 141.86C475.49 139.16 473.59 137.23 471.09 136.21C469.46 135.55 467.64 135.2 465.82 135.2H451.36C453.18 135.2 455 135.55 456.63 136.21C459.13 137.23 461.03 139.16 462.23 141.86C462.54 142.63 462.8 143.46 463 144.34C464.71 151.84 461.94 162.22 456.56 168.47C454.82 170.5 452.8 172.22 450.61 173.6Z" fill="url(#g_8)"/>
<path d="M472.5 127.49H458.04C457.1 125.17 454.62 123.52 451.05 122.84C449.9 122.62 448.67 122.51 447.45 122.51H461.91C463.13 122.51 464.36 122.62 465.51 122.84C469.07 123.52 471.55 125.17 472.5 127.49Z" fill="#B4E6FF"/>
<path d="M460.04 151.65H445.58C441.55 151.65 439.63 149.97 438.73 148.48C437.29 146.12 437.68 143.06 438.71 141.09C440.57 137.55 443.72 136.14 446.03 135.59C447.12 135.33 448.25 135.2 449.38 135.2H463.84C462.71 135.2 461.57 135.33 460.49 135.59C458.18 136.14 455.03 137.55 453.17 141.09C452.14 143.06 451.74 146.12 453.19 148.48C454.1 149.96 456.01 151.65 460.04 151.65Z" fill="#005ADC"/>
<path d="M449.94 177.38H435.48C434.67 177.38 433.86 177.34 433.05 177.24C426.95 176.54 422.07 173.35 419.32 168.26C417.42 164.75 416.52 160 416.79 154.89C417.1 149.15 418.85 143.32 421.87 138.03C426.13 130.55 431.56 125.77 438.49 123.42C440.18 122.84 442.25 122.52 444.36 122.52H458.82C456.71 122.52 454.64 122.84 452.95 123.42C446.03 125.78 440.6 130.56 436.33 138.03C433.32 143.33 431.56 149.16 431.25 154.89C430.98 160 431.88 164.75 433.78 168.26C436.54 173.36 441.41 176.54 447.51 177.24C448.32 177.33 449.12 177.38 449.94 177.38Z" fill="#005ADC"/>
<path d="M196.17 59.53C199.58 44.9 196.65 31.24 188.15 22.06C183.76 17.32 178.15 13.99 171.71 12.17L189.79 17.29C196.23 19.11 201.84 22.44 206.23 27.18C214.74 36.37 217.66 50.02 214.25 64.65C210.25 81.85 198.08 96.1 180.87 103.73C172.05 107.64 162.54 109.57 153.05 109.57C148.23 109.57 143.41 109.07 138.7 108.08L120.62 102.96C125.33 103.95 130.15 104.45 134.97 104.45C144.46 104.45 153.97 102.52 162.79 98.61C180 90.98 192.17 76.73 196.17 59.53Z" fill="#005ADC"/>
<path d="M122.89 66.8C122.91 80.97 129.16 94.88 135.59 107.66C136.43 109.31 137.27 110.95 138.09 112.56C143.74 123.6 150.32 137.74 151.43 147.13C153.04 160.69 148.62 168.38 144.62 172.43C140.15 176.96 134.88 178.51 130.97 178.51C130.21 178.51 129.51 178.45 128.87 178.35C128.25 178.25 118.91 177.62 118.33 177.45L105.87 170.96C106.45 171.12 107.05 171.26 107.67 171.36C108.31 171.47 109.02 171.52 109.77 171.52C115.72 173.05 124.8 172.02 129.73 168.01C135.45 163.37 137.35 156.71 134.77 143.24C132.88 133.38 125.67 118.48 120.02 107.44C119.2 105.83 118.36 104.2 117.52 102.54C110.58 88.74 103.84 73.6 104.94 58.26C106.66 34.33 121.73 16.34 144.28 11.32C148.59 10.36 152.79 9.89001 156.81 9.89001C161.18 9.89001 165.33 10.45 169.19 11.54L187.27 16.66C183.41 15.57 179.26 15.01 174.89 15.01C170.87 15.01 166.67 15.48 162.36 16.44C139.81 21.46 124.74 39.44 123.02 63.38C122.94 64.52 122.9 65.66 122.9 66.8H122.89Z" fill="url(#g_9)"/>
<path d="M130.96 178.5C130.96 178.5 115.8 179.91 106.04 175.69C94.1299 170.54 88.0699 162.5 84.6499 148L94.6999 155.13L100.82 150.91C102.45 168.33 113.41 176.88 130.96 178.49V178.5Z" fill="#005ADC"/>
<path d="M302.16 98.5701L316.67 100.91C320.13 101.47 323.02 103.24 324.88 106.05C327.7 110.33 327.44 116.12 324.18 121.15L309.67 118.81C312.92 113.78 313.19 107.98 310.37 103.71C308.51 100.89 305.61 99.1201 302.16 98.5701Z" fill="url(#g_10)"/>
<path d="M292.72 178.45L278.21 176.11C279.74 176.35 281.29 176.46 282.82 176.46C290.19 177.06 296.03 174.67 298.74 173.23C306.45 169.1 311.08 161.07 304.24 149.96C299.66 142.52 288.87 135.96 282.86 127.44C279.5 122.69 278.49 117.72 279.64 112.14C280.87 106.21 286.22 101.56 290.91 99.5999C293.27 98.6099 295.3 98.1799 296.61 98.0299C299.54 97.6799 312.35 100.22 312.35 100.22C310.79 99.9699 309.34 100.21 307.25 100.29C299.7 100.6 290.55 107.68 291.99 116.32C292.81 121.21 295.42 124.27 299.28 128.11C302.75 131.57 306.21 133.72 310.98 137.61C315.75 141.5 319.05 145.5 320.88 151.08C323.33 158.53 321.96 167.48 312.78 174.35C309.02 177.3 303.01 178.8 297.33 178.81C295.8 178.81 294.26 178.7 292.72 178.46V178.45Z" fill="#005ADC"/>
<path d="M294.33 178.73L279.82 176.39C273.72 175.44 268.8 172.75 266.32 169.02C262.46 163.19 262.14 157.7 263.09 149.97L277.39 151.73C275.38 160.91 276.97 165.53 280.83 171.36C283.31 175.1 288.23 177.79 294.33 178.73Z" fill="url(#g_11)"/>
<path d="M83.7899 206.26L101.92 209.33C103.42 209.58 104.89 209.94 106.33 210.4C117.74 214.03 125.7 223.68 128.77 237.57L110.64 234.5C107.58 220.6 99.6099 210.95 88.1999 207.33C86.7599 206.87 85.2799 206.52 83.7899 206.26Z" fill="url(#g_12)"/>
<path d="M56.38 376.28L38.25 373.21C40.03 373.51 41.85 373.66 43.68 373.66C51.68 373.66 60.04 370.8 67.3 365.18C87.36 349.66 100.02 303.92 108.84 267.28C109.8 263.3 110.78 259.21 111.78 255.14L129.91 258.21C128.91 262.28 127.93 266.37 126.97 270.35C118.15 306.99 105.49 352.72 85.43 368.25C78.17 373.87 69.81 376.73 61.81 376.73C59.98 376.73 58.16 376.58 56.38 376.28Z" fill="#005ADC"/>
<path d="M73.73 297.94L55.6 294.87C58.01 295.28 60.44 295.48 62.85 295.48C69.16 295.48 75.39 294.08 81.19 291.29C93.81 285.22 104.46 272.64 111.98 254.91L130.11 257.98C122.59 275.71 111.94 288.28 99.32 294.36C93.52 297.15 87.29 298.55 80.98 298.55C78.57 298.55 76.15 298.35 73.73 297.94Z" fill="url(#g_13)"/>
<path d="M54.64 376.01L36.51 372.94C31.95 372.17 27.62 370.41 23.81 367.65C11.76 358.94 7.64996 338.84 12.82 320.09L19.74 332.77L30.95 326.87C25.78 345.62 29.89 362.01 41.94 370.72C45.75 373.48 50.08 375.23 54.64 376.01Z" fill="url(#g_14)"/>
<path d="M71.1999 297.56L53.0699 294.49C49.9399 293.96 46.8199 293.09 43.7599 291.87C34.2499 288.1 28.0099 280.07 26.1999 269.26C23.4399 252.89 30.9699 233 44.9199 219.77C54.7899 210.41 66.7599 205.31 77.9699 205.31L96.0999 208.38C84.8899 208.38 72.9199 213.48 63.0499 222.84C49.0899 236.07 41.5699 255.96 44.3299 272.33C46.1499 283.14 52.3899 291.17 61.8899 294.94C64.9499 296.16 68.0699 297.03 71.1999 297.56Z" fill="#005ADC"/>
<path d="M314.15 295.4L299.65 292.94C300.14 293.02 300.64 293.06 301.16 293.06C302.09 293.06 303.08 292.93 304.11 292.66C309.99 291.11 317.37 284.79 319.67 274.56L334.17 277.02C331.87 287.25 324.49 293.57 318.61 295.12C317.58 295.39 316.6 295.52 315.66 295.52C315.14 295.52 314.63 295.48 314.15 295.4Z" fill="url(#g_15)"/>
<path d="M313.41 295.21L298.91 292.75C296.95 292.42 295.28 291.45 294.01 289.87C290.52 285.5 291.97 279.64 293.81 272.23C295 267.41 296.36 261.95 296.52 255.97C296.65 251.04 294.01 246.85 289.63 245.02C288.81 244.68 287.46 244.41 286.5 244.25L301.45 246.71C302.42 246.87 303.32 247.14 304.13 247.48C308.5 249.31 311.15 253.5 311.02 258.43C310.87 264.41 309.51 269.87 308.31 274.69C306.47 282.11 305.01 287.97 308.51 292.33C309.78 293.91 311.45 294.88 313.41 295.21Z" fill="#005ADC"/>
<path d="M281.59 241.4C282.69 239.47 283.78 237.53 284.85 235.61C296.88 214.06 303.06 200.44 302.72 196.19C302.46 192.89 301.18 190.96 299.04 190.59L284.54 188.13C286.69 188.49 287.97 190.42 288.22 193.73C288.56 197.97 282.38 211.6 270.35 233.15C266.74 239.63 262.92 246.23 259.34 252.31C253.85 261.6 248.89 270.82 246.18 275.09C240.39 284.2 231.51 291.04 224.59 291.74C224.17 291.78 223.76 291.8 223.35 291.8C222.73 291.8 222.13 291.75 221.55 291.65L236.05 294.11C236.63 294.21 237.23 294.26 237.85 294.26C238.25 294.26 238.67 294.24 239.09 294.2C246.01 293.5 254.89 286.66 260.68 277.55C263.39 273.28 268.35 264.06 273.84 254.77C276.36 250.5 279 245.97 281.59 241.4Z" fill="url(#g_16)"/>
<path d="M217.25 281.16C215.85 284.03 214.29 286.54 212.5 288.77C209.73 292.22 205.56 294.26 201.2 294.26C200.57 294.26 199.96 294.2 199.38 294.1L184.88 291.64C185.46 291.74 186.07 291.79 186.7 291.8C191.06 291.8 195.23 289.76 198 286.31C206.15 276.17 209.39 260.28 215.26 231.43L220.05 208.11L234.55 210.57L229.76 233.89C225.18 256.39 222.2 271 217.24 281.16H217.25Z" fill="url(#g_17)"/>
<path d="M199.05 294.02L184.55 291.56C182.44 291.2 180.77 290.31 179.83 289.04C176.51 284.53 175.24 278.69 179.12 264.12L193.62 266.58C189.74 281.16 191.02 287 194.33 291.5C195.27 292.77 196.94 293.66 199.05 294.02Z" fill="#005ADC"/>
<path d="M170.28 244.47L184.78 246.93C188.35 247.54 191.24 249.26 193.11 251.76L178.61 249.3C176.74 246.8 173.85 245.08 170.28 244.47Z" fill="#B4E6FF"/>
<path d="M160.94 296.21L146.44 293.75C147.24 293.89 148.05 293.95 148.87 293.95C159.61 293.95 171.44 282.38 178.99 264.07L193.49 266.53C185.94 284.83 174.11 296.41 163.37 296.41C162.55 296.41 161.74 296.34 160.94 296.21Z" fill="url(#g_18)"/>
<path d="M159.77 296.01L145.27 293.55C145.27 293.55 145.23 293.55 145.21 293.54C140.78 292.76 137.33 289.93 135.49 285.56C132.73 278.97 134.02 269.82 138.88 261.68C142.26 256.02 146.6 251.38 151.46 248.28C155.79 245.5 160.39 243.99 164.76 243.89C164.92 243.89 165.08 243.89 165.23 243.89C166.25 243.89 167.23 243.97 168.17 244.13L182.67 246.59C181.74 246.43 180.75 246.35 179.73 246.35C179.57 246.35 179.42 246.35 179.26 246.35C174.89 246.45 170.29 247.97 165.96 250.74C161.11 253.85 156.76 258.48 153.38 264.14C148.52 272.28 147.23 281.43 149.99 288.02C151.82 292.39 155.27 295.22 159.71 296C159.73 296 159.75 296 159.77 296.01Z" fill="#005ADC"/>
<path d="M549.24 298.97L534.74 296.51C535.01 296.56 535.28 296.6 535.55 296.63C536.44 296.74 537.34 296.8 538.23 296.8C544.26 296.8 550.24 294.24 554.99 289.56L568.14 292.28C563.4 296.96 558.76 299.26 552.73 299.26C551.84 299.26 550.94 299.2 550.05 299.09C549.78 299.06 549.51 299.02 549.24 298.97Z" fill="url(#g_19)"/>
<path d="M549.25 298.96L534.75 296.5C530.08 295.71 526.19 293.32 524.23 290.01C521.92 286.1 523.34 279.16 524.84 271.81C526.27 264.81 527.75 257.57 526.32 252.03C525.23 247.83 521.88 244.99 517.08 244.18L531.58 246.64C536.38 247.45 539.73 250.29 540.82 254.49C542.25 260.03 540.77 267.27 539.34 274.27C537.84 281.62 536.42 288.57 538.73 292.47C540.69 295.78 544.58 298.17 549.25 298.96Z" fill="#005ADC"/>
<path d="M516.33 244.04L530.83 246.5C530.67 246.47 530.51 246.45 530.34 246.42C529.61 246.32 528.84 246.27 528.04 246.27C522.16 246.27 514.9 249.13 510.83 256.02C507.73 261.26 505.05 269.82 503.02 277.69L488.52 275.23C490.54 267.36 493.23 258.81 496.33 253.56C500.4 246.68 507.66 243.81 513.54 243.81C514.34 243.81 515.11 243.86 515.84 243.96C516 243.98 516.17 244.01 516.33 244.04Z" fill="url(#g_20)"/>
<path d="M493.2 251.05C493.16 251.68 493.08 252.33 492.95 253.01C492.24 256.59 488.87 273.74 486.76 284.47C485.66 289.59 485.05 293.19 485.38 293.36L499.88 295.82C499.54 295.66 500.16 292.06 501.26 286.93C503.37 276.2 506.74 259.05 507.45 255.47C508.21 251.65 507.36 248.53 505.18 247.14C504.65 246.8 504.07 246.58 503.46 246.48L488.96 244.02C489.58 244.12 490.16 244.34 490.68 244.68C492.48 245.83 493.37 248.14 493.21 251.05H493.2Z" fill="#005ADC"/>
<path d="M461 295.74L446.5 293.28C447.12 293.39 447.77 293.44 448.43 293.44C448.65 293.44 448.88 293.44 449.1 293.42C454.15 293.15 459 290.04 462.09 285.09C466.37 278.22 469.65 270.28 472.54 263.29C475.76 255.48 478.55 248.74 481.71 246.11C483.52 244.6 485.46 243.82 487.22 243.82C487.54 243.82 487.85 243.85 488.15 243.9L502.65 246.36C502.35 246.31 502.03 246.28 501.72 246.28C499.96 246.28 498.02 247.06 496.21 248.57C493.05 251.2 490.26 257.94 487.04 265.75C484.15 272.75 480.88 280.68 476.59 287.55C473.51 292.5 468.65 295.61 463.6 295.88C463.37 295.89 463.15 295.9 462.93 295.9C462.27 295.9 461.62 295.85 461 295.74Z" fill="url(#g_21)"/>
<path d="M460.69 295.66L446.19 293.2C443.67 292.77 441.53 291.53 440.11 289.6C435.18 282.92 436 274.18 440.14 259.23L454.64 261.69C450.49 276.65 449.68 285.38 454.61 292.06C456.03 293.98 458.17 295.23 460.69 295.66Z" fill="#005ADC"/>
<path d="M422.99 295.88L408.49 293.42C409.01 293.51 409.56 293.55 410.12 293.55C412.36 293.55 414.92 292.86 417.58 291.49C431.03 284.59 437.22 267.41 441.74 254.87L456.24 257.33C451.72 269.87 445.53 287.06 432.08 293.95C429.41 295.31 426.86 296.01 424.62 296.01C424.05 296.01 423.51 295.97 422.99 295.88Z" fill="url(#g_22)"/>
<path d="M422.4 250.9C423.17 250.89 423.92 250.85 424.66 250.79C427.73 250.51 430.52 249.52 432.78 248.12C434.7 246.93 435.71 245.42 435.54 243.99C435.41 242.93 434.63 242.09 433.51 241.78C433.4 241.75 433.3 241.73 433.19 241.71L418.69 239.25C418.8 239.27 418.9 239.29 419.01 239.32C420.13 239.63 420.91 240.47 421.04 241.53C421.21 242.97 420.21 244.48 418.28 245.66C416.02 247.06 413.23 248.05 410.16 248.33C409.19 248.41 408.2 248.44 407.19 248.44C401.88 248.44 396.07 247.48 390.65 246.59L405.15 249.05C410.57 249.95 416.38 250.9 421.69 250.9C421.93 250.9 422.16 250.9 422.4 250.9Z" fill="#B4E6FF"/>
<path d="M416.57 285.4C417.16 278.31 420.89 261.05 424.67 251C425.64 248.48 426.6 246.44 427.52 245.18C429.15 242.95 431.12 241.72 432.97 241.72C433.2 241.72 433.42 241.74 433.64 241.78L419.14 239.32C418.92 239.28 418.69 239.26 418.47 239.26C416.62 239.26 414.65 240.5 413.02 242.72C412.1 243.98 411.14 246.01 410.17 248.54C405.95 259.77 401.79 280 402 284.98C402.15 288.5 403.45 291.11 405.76 292.54C406.59 293.05 407.54 293.4 408.58 293.57L423.08 296.03C422.05 295.85 421.1 295.51 420.26 295C417.95 293.57 416.65 290.97 416.5 287.44C416.48 286.92 416.5 286.23 416.57 285.4Z" fill="#005ADC"/>
<path d="M349.15 295.33L334.65 292.87C335.67 293.04 336.76 293.13 337.91 293.13C340.29 293.13 342.94 292.76 345.84 292.02C366.59 286.71 376.34 263.47 381.03 252.31C382.69 248.37 385.23 246.44 388.79 246.44C389.38 246.44 390 246.49 390.64 246.6L405.14 249.06C404.49 248.95 403.88 248.9 403.29 248.9C399.73 248.9 397.18 250.83 395.53 254.77C390.84 265.94 381.09 289.17 360.34 294.48C357.44 295.22 354.79 295.59 352.41 295.59C351.26 295.59 350.17 295.5 349.15 295.33Z" fill="url(#g_23)"/>
<path d="M350.28 275.96C352.39 275.45 354.54 274.71 356.66 273.77C361.45 271.64 366.05 268.51 369.42 264.84C373.13 260.81 374.93 256.57 374.64 252.57C374.4 249.31 372.71 247.17 369.75 246.37C369.48 246.3 369.2 246.24 368.91 246.19L354.41 243.73C354.7 243.78 354.98 243.84 355.25 243.91C358.21 244.71 359.9 246.85 360.14 250.11C360.43 254.11 358.62 258.36 354.92 262.38C351.86 265.71 347.44 268.36 343.12 270.46C341.52 271.24 339.61 271.97 337.98 272.51L350.28 275.96Z" fill="url(#g_24)"/>
<path d="M344.98 294.61L330.48 292.15C325.99 291.39 323.41 289.09 321.94 286.82C317.24 279.58 319.95 267.68 324.88 260.15C328.63 254.43 333.76 249.58 339.34 246.5C343.25 244.33 347.09 243.19 350.3 243.19C350.98 243.19 351.64 243.24 352.26 243.35L366.76 245.81C366.14 245.7 365.49 245.65 364.8 245.65C361.6 245.65 357.76 246.79 353.84 248.96C348.27 252.04 343.13 256.9 339.38 262.61C334.45 270.13 331.74 282.03 336.44 289.28C337.91 291.55 340.49 293.84 344.98 294.61Z" fill="#005ADC"/>
<path d="M281.72 223.59C285.05 211.09 287.78 201.36 288.74 198.88C290.48 194.39 294.75 190.76 298.25 190.76C298.48 190.76 298.71 190.78 298.94 190.81C298.97 190.81 299.01 190.82 299.04 190.83L284.54 188.37C284.54 188.37 284.47 188.36 284.44 188.35C284.22 188.32 284.05 188.31 283.82 188.31C280.32 188.31 275.99 191.94 274.24 196.42C272.51 200.87 265.08 228.69 258.74 253.97C254.68 270.15 250.83 285.61 249.86 292.58L264.36 295.04C265.33 288.07 269.18 272.61 273.24 256.43C276.05 245.23 279.08 233.53 281.72 223.59Z" fill="#005ADC"/>
<path d="M420.64 109.45C410.08 109.29 401.72 116.92 398.03 130.09C401.72 116.92 397.69 109.1 387.14 108.93C397.7 109.09 406.06 101.46 409.75 88.29C406.06 101.46 410.09 109.28 420.64 109.45Z" fill="#FF3C00"/>
<path d="M473 229.08C462.44 229.08 454.2 236.84 450.71 250.07C454.2 236.85 450.05 229.08 439.49 229.08C450.05 229.08 458.29 221.32 461.78 208.09C458.29 221.31 462.44 229.08 473 229.08Z" fill="#FF3C00"/>
<path d="M245.52 155.7H231.06C236.18 155.7 243.15 151.61 247.75 143.5C253.53 133.31 254.72 122.26 251.01 113.17C246.71 102.65 236.51 96.6201 223.02 96.6201H237.48C250.97 96.6201 261.17 102.65 265.47 113.17C269.18 122.25 267.99 133.3 262.21 143.5C257.61 151.61 250.64 155.7 245.52 155.7Z" fill="url(#g_25)"/>
<path d="M244.62 155.7H230.16C229.15 155.7 228.21 155.55 227.37 155.23C225.37 154.49 223.96 152.94 223.3 150.74C222.22 147.21 222.99 142.24 225.57 135.94H240.03C237.45 142.24 236.68 147.21 237.76 150.74C238.42 152.94 239.83 154.5 241.83 155.23C242.67 155.54 243.61 155.7 244.62 155.7Z" fill="#005ADC"/>
<path d="M227.06 177.96C223.28 178.68 213.29 178.38 213.29 178.38C216.85 178.38 227.57 172.61 231.09 168.72H244.19C241.66 172.9 233.69 176.7 227.06 177.96Z" fill="url(#g_26)"/>
<path d="M238.55 121.62H224.09C223.11 119.82 221.11 118.75 218.46 118.6C218.25 118.59 218.04 118.58 217.83 118.58H232.29C232.5 118.58 232.71 118.58 232.92 118.6C235.57 118.74 237.57 119.82 238.55 121.62Z" fill="#B4E6FF"/>
<path d="M205.65 155.42C205.1 155.53 204.55 155.59 204.01 155.59H219.72C226.23 155.59 232.07 147.5 239.16 137.11L240.19 135.6H225.73L224.7 137.11C218.2 146.63 211.71 154.22 205.65 155.42Z" fill="url(#g_27)"/>
<path d="M220.76 178.45H206.3C193.36 178.45 183.85 175.14 177.4 168.44C172.83 163.69 169.95 156.77 169.29 148.96C168.6 140.74 170.33 132.2 174.31 124.25C177.98 116.92 184.13 110.08 191.62 105C199.67 99.5301 208.38 96.6401 216.82 96.6301H231.28C222.84 96.6401 214.12 99.5301 206.08 105C198.59 110.08 192.45 116.92 188.77 124.25C184.79 132.19 183.05 140.74 183.75 148.96C184.41 156.77 187.29 163.69 191.86 168.44C198.31 175.14 207.82 178.45 220.76 178.45Z" fill="#005ADC"/>
<path d="M201.25 223.54H213.61C209.53 223.54 206.04 225.01 202.99 227.93H190.63C193.68 225 197.17 223.54 201.25 223.54Z" fill="#00BE6E"/>
<path d="M202.29 223.54H214.65C219.27 223.54 224.59 225.38 230.82 229.06C234.26 231.1 237.37 231.79 240.02 231.79H227.66C225.02 231.79 221.91 231.09 218.46 229.06C212.24 225.38 206.91 223.54 202.29 223.54Z" fill="#005ADC"/>
<path d="M241.49 222.37H253.85C253.51 224.45 251.41 227.67 247.59 229.83C245.95 230.76 243.34 231.83 240.01 231.83H227.65C230.97 231.83 233.59 230.76 235.23 229.83C239.05 227.67 241.15 224.44 241.49 222.37Z" fill="#00BE6E"/>
<path d="M616.49 343.23H602.03C616.25 343.23 629.45 335.95 635.27 324.44C640.26 314.58 638.69 303.63 630.98 294.41L642.7 298.96L645.44 294.41C653.15 303.63 654.72 314.58 649.73 324.44C643.91 335.95 630.71 343.23 616.49 343.23Z" fill="#005ADC"/>
<path d="M613.02 249.33H598.56C596.31 245.82 592.08 243.81 586.92 243.81H601.38C606.53 243.81 610.77 245.82 613.02 249.33Z" fill="#B4E6FF"/>
<path d="M595.98 275.91C596.54 274.41 597.08 272.96 597.6 271.57H612.06C607.3 284.44 600.46 302.47 591.15 319.33C588.28 324.53 585.17 329.62 581.82 334.41C570.96 349.8 557.57 362.04 541.16 364.87C539.66 365.13 538.1 365.27 536.54 365.27H522.08C523.64 365.27 525.14 365.13 526.64 364.87C543.05 362.04 556.49 349.8 567.36 334.41C580.42 315.77 589.72 292.61 595.98 275.92V275.91Z" fill="#005ADC"/>
<path d="M583.74 296.6H569.28C580.06 296.6 591.66 285.66 599.46 267.77H613.92C606.12 285.65 594.52 296.6 583.74 296.6Z" fill="url(#g_28)"/>
<path d="M580.47 296.5H566.01C565.09 296.5 564.17 296.42 563.26 296.26C558.54 295.44 554.82 292.44 552.8 287.82C549.75 280.85 550.97 271.19 555.98 262.6C561.17 253.7 571.02 244.09 583.1 243.82C583.27 243.82 583.43 243.82 583.6 243.82H598.06C597.9 243.82 597.73 243.82 597.56 243.82C585.48 244.09 575.63 253.69 570.44 262.6C565.43 271.2 564.22 280.86 567.26 287.82C569.28 292.44 573 295.44 577.72 296.26C578.63 296.42 579.54 296.5 580.47 296.5Z" fill="#005ADC"/>
<path d="M534.34 365.27H519.88C510.54 365.27 505.49 360 503.82 354.49C501.45 346.63 505.05 335.67 516.52 329.91C522.99 326.66 529.13 325.38 535.09 325.38H549.55C543.58 325.38 537.45 326.66 530.98 329.91C519.51 335.67 515.91 346.63 518.28 354.49C519.95 360 525 365.27 534.34 365.27Z" fill="url(#g_29)"/>
<path d="M342.78 178.45L328.27 176.11C329.8 176.35 331.35 176.46 332.88 176.46C340.25 177.06 346.09 174.67 348.8 173.23C356.51 169.1 361.14 161.07 354.3 149.96C349.72 142.52 338.93 135.96 332.92 127.44C329.56 122.69 328.55 117.72 329.7 112.14C330.93 106.21 336.28 101.56 340.97 99.5999C343.33 98.6099 345.36 98.1799 346.67 98.0299C349.6 97.6799 362.41 100.22 362.41 100.22C360.85 99.9699 359.4 100.21 357.31 100.29C349.76 100.6 340.61 107.68 342.05 116.32C342.87 121.21 345.48 124.27 349.34 128.11C352.81 131.57 356.27 133.72 361.04 137.61C366.03 141.68 369.11 145.5 370.94 151.08C373.39 158.53 372.02 167.48 362.84 174.35C359.08 177.3 353.07 178.8 347.39 178.81C345.86 178.81 344.32 178.7 342.78 178.46V178.45Z" fill="#005ADC"/>
<path d="M213.8 155.62H199.34C197.65 155.62 196.13 155.19 194.87 154.28C192.21 152.37 190.82 149.05 190.97 144.94C191.19 138.76 194.74 131.72 200.47 126.11C205.33 121.35 210.97 118.58 215.68 118.58H230.14C225.43 118.58 219.79 121.35 214.93 126.11C209.2 131.72 205.65 138.76 205.43 144.94C205.28 149.05 206.67 152.37 209.33 154.28C210.6 155.19 212.11 155.62 213.8 155.62Z" fill="#005ADC"/>
<path d="M150.28 335.54C150.44 335.64 151.11 336.07 151.02 336.29C150.97 336.43 150.74 336.51 150.59 336.57C150.37 336.67 150.27 336.79 150.1 336.96C148.06 339.15 145.71 341.32 143.3 343.15C142.98 343.41 142.08 344.12 141.75 344.12C141.45 344.12 140.4 343.31 140.56 342.9C140.61 342.78 140.72 342.7 140.83 342.62C143.56 340.73 146.79 338 148.81 335.46C148.93 335.32 149.15 335.01 149.33 335.01C149.53 335.01 150.11 335.42 150.28 335.54ZM156.18 335.54C156.37 335.76 156.75 336.78 156.86 337.14C157.12 337.91 158.18 341.76 157.88 342.51C157.68 343 155.89 343.69 155.55 343.69C155.31 343.69 155.31 343.51 155.3 343.33C155.18 341.12 154.81 338.79 154 336.94C153.94 336.84 153.88 336.7 153.94 336.55C154.08 336.19 155.58 335.4 155.88 335.4C156.02 335.4 156.12 335.44 156.18 335.54ZM161.82 334.38C161.39 335.46 160.17 336.33 159.08 336.33C157.99 336.33 157.47 335.46 157.91 334.38C158.35 333.29 159.57 332.41 160.66 332.41C161.75 332.41 162.26 333.3 161.82 334.38ZM158.8 334.38C158.56 334.97 158.85 335.44 159.44 335.44C160.03 335.44 160.69 334.97 160.93 334.38C161.17 333.79 160.88 333.31 160.29 333.31C159.7 333.31 159.04 333.78 158.8 334.38Z" fill="#005ADC"/>
<path d="M187.19 336.76C187.32 336.82 187.48 336.92 187.4 337.11C187.35 337.25 187.18 337.33 187.05 337.41C186.84 337.53 186.8 337.59 186.63 337.82C185.22 339.85 183.73 341.71 181.71 343.34C179.59 345.04 177.35 346.1 174.97 346.77C174.82 346.81 174.43 346.93 174.3 346.93C173.92 346.93 173.63 345.85 173.74 345.57C173.83 345.35 173.98 345.28 174.2 345.22C177.02 344.53 179.64 343.37 181.99 341.06C183.38 339.7 184.55 338.16 185.4 336.58C185.49 336.4 185.6 336.19 185.82 336.19C186 336.19 187.01 336.66 187.21 336.76H187.19ZM177.29 337.08C177.4 337.34 177.57 338.05 177.64 338.36C177.71 338.64 177.97 339.66 177.86 339.92C177.69 340.33 176.31 340.83 176.07 340.83C175.87 340.83 175.85 340.65 175.83 340.5C175.75 339.67 175.59 338.88 175.37 338.11C175.35 338.01 175.3 337.89 175.35 337.76C175.49 337.4 176.76 336.91 177.01 336.91C177.17 336.91 177.22 336.99 177.27 337.09L177.29 337.08ZM182.08 337.2C182.15 337.48 182.42 338.56 182.32 338.82C182.16 339.21 180.81 339.73 180.53 339.73C180.33 339.73 180.3 339.51 180.29 339.36C180.21 338.53 180.05 337.8 179.84 337.03C179.8 336.93 179.76 336.79 179.82 336.64C179.95 336.31 181.22 335.81 181.47 335.81C181.75 335.81 181.9 336.36 182.01 336.92L182.07 337.21L182.08 337.2Z" fill="#005ADC"/>
<path d="M202.96 344.67C203.54 344.55 204.98 344.1 205.62 343.88C207.84 343.11 209.74 342.26 211.78 340.78C214.05 339.1 215.91 336.97 217.54 334.82C217.7 334.62 217.89 334.35 218.14 334.35C218.44 334.35 219.18 335.43 219.03 335.83C218.97 335.97 218.67 336.32 218.46 336.6C218.37 336.74 218.27 336.84 218.21 336.92C216.64 338.87 214.44 341 212.32 342.5C209.76 344.3 206.73 345.62 203.97 346.49C203.43 346.67 203.37 346.71 202.99 347.06C202.93 347.12 202.82 347.18 202.75 347.18C202.53 347.18 202.55 346.75 202.53 346.51C202.5 346.04 202.48 345.56 202.45 345.09C202.45 345.05 202.45 344.97 202.48 344.91C202.54 344.75 202.82 344.71 202.95 344.67H202.96ZM205.7 336.21C205.96 336.21 207.35 337.35 207.6 337.57C208.01 337.89 208.79 338.44 208.66 338.75C208.52 339.1 207.26 340.27 206.87 340.27C206.73 340.27 206.59 340.13 206.5 340.05C205.71 339.26 205.06 338.73 204.16 338.06C204.05 337.98 203.89 337.9 203.96 337.73C204.09 337.41 205.32 336.21 205.69 336.21H205.7ZM211.37 333.15C211.66 333.45 212.18 333.94 212.41 334.23C212.49 334.33 212.55 334.43 212.49 334.56C212.35 334.92 211.08 336.02 210.72 336.02C210.56 336.02 210.41 335.86 210.33 335.76C209.7 335.01 209.02 334.3 208.27 333.67C208.16 333.59 208.01 333.47 208.09 333.29C208.2 333.01 209.48 331.93 209.84 331.93C210.08 331.93 210.76 332.58 211.15 332.94C211.26 333.02 211.32 333.1 211.37 333.14V333.15Z" fill="#005ADC"/>
<path d="M243.35 336.25C243.73 336.25 244.13 336.23 244.52 336.23C245.47 336.23 245.49 336.52 245.16 337.33C245.04 337.63 244.86 338.02 244.68 338.47L242.24 344.55C242.07 344.96 241.92 345.4 241.75 345.81C241.5 346.44 241.3 346.48 240.61 346.48C239.82 346.48 239.74 346.44 239.8 346.05C239.85 345.83 239.69 345.83 239.28 345.83H234.64C233.95 345.83 233.13 345.85 232.68 345.85C232.23 345.85 232.34 345.51 232.63 344.78C232.77 344.42 232.92 344.01 233.37 344.01C233.73 344.01 234.62 344.05 235.33 344.05H240.14C240.4 344.05 240.67 343.85 240.77 343.6L241.27 342.36C241.37 342.12 241.26 341.91 241 341.91H236.38C235.69 341.91 234.8 341.95 234.39 341.95C233.92 341.95 234.12 341.54 234.39 340.88C234.54 340.5 234.65 340.13 235.13 340.13C235.56 340.13 236.38 340.17 237.07 340.17H241.71C241.97 340.17 242.24 339.97 242.34 339.72L242.84 338.48C242.94 338.22 242.84 338.01 242.58 338.01H237.81C237.22 338.01 236.35 338.05 235.86 338.05C235.41 338.05 235.51 337.73 235.73 337.18C235.96 336.61 236.08 336.21 236.55 336.21C236.93 336.21 237.84 336.25 238.49 336.25H243.34H243.35Z" fill="#005ADC"/>
<path d="M278.36 337.24C278.23 337.57 277.13 338.34 276.77 338.6C272.25 341.89 268.01 344.1 263.07 346.04C262.29 346.36 262.26 346.38 261.97 346.71C261.9 346.79 261.82 346.83 261.72 346.83C261.5 346.83 261.41 346.04 261.36 345.8C261.32 345.6 261.16 344.81 261.24 344.62C261.33 344.4 261.7 344.36 261.99 344.29C266.87 343.01 273.29 339.28 277.53 335.71C277.65 335.61 277.81 335.49 277.95 335.49C278.34 335.49 278.47 336.95 278.35 337.25L278.36 337.24ZM269.48 333.98C269.67 334.16 270.35 334.81 270.23 335.1C270.05 335.55 268.69 336.62 268.32 336.62C268.16 336.62 267.91 336.32 267.74 336.09C267.38 335.6 266.39 334.69 265.85 334.26C265.73 334.16 265.61 334.06 265.68 333.88C265.8 333.58 267.09 332.32 267.55 332.32C267.87 332.32 269.21 333.7 269.47 333.98H269.48Z" fill="#005ADC"/>
<path d="M312.32 335.03C312.59 334.99 312.86 334.77 312.96 334.52C313 334.42 313.02 334.32 313.05 334.2L313.13 333.75C313.23 333.22 313.45 332.31 313.48 331.8C313.48 331.74 313.48 331.66 313.51 331.58C313.6 331.34 313.92 331.34 314.45 331.3C314.91 331.28 315.41 331.26 315.87 331.26C315.99 331.26 316.25 331.26 316.17 331.44C316.14 331.52 316 331.66 315.93 331.73C315.8 331.87 315.72 331.95 315.65 332.12C315.54 332.4 315.3 333.38 315.25 333.72L315.19 334.06C315.14 334.39 315.28 334.61 315.64 334.57L317.37 334.33C317.75 334.27 320.06 333.92 320.16 333.92C320.54 333.92 320.42 334.25 320.35 334.57C320.29 334.83 320.19 335.32 320.09 335.56C319.92 335.97 319.66 335.99 318.48 336.13C318.07 336.17 317.52 336.25 316.86 336.33L315.17 336.55C314.86 336.59 314.56 336.88 314.51 337.16L314.05 339.33C313.98 339.65 314.18 339.84 314.51 339.8L317.89 339.35C318.22 339.31 320.67 338.92 320.75 338.92C321.1 338.92 321.06 339.18 320.94 339.63C320.86 339.89 320.8 340.22 320.68 340.52C320.51 340.95 320.34 340.97 318.95 341.13C318.53 341.19 318.02 341.23 317.37 341.33L314.07 341.78C313.76 341.82 313.47 342.1 313.41 342.39L313.12 343.69C313 344.22 312.56 346.75 312.45 347.04C312.38 347.22 312.23 347.34 312.03 347.4C311.64 347.5 310.79 347.69 310.43 347.69C310 347.69 310.21 347.16 310.34 346.63C310.54 345.88 310.76 344.83 310.93 344.08L311.22 342.72C311.29 342.4 311.08 342.19 310.75 342.23L307.07 342.74C306.71 342.8 304.47 343.13 304.33 343.13C304.09 343.13 304.02 343.01 304.05 342.8C304.07 342.56 304.3 341.7 304.39 341.46C304.53 341.11 304.78 341.09 305.83 340.97C306.26 340.93 306.84 340.85 307.59 340.75L311.18 340.26C311.51 340.22 311.79 339.96 311.86 339.65L312.33 337.5C312.41 337.16 312.22 336.95 311.84 337.01L310 337.27C309.62 337.33 307.27 337.69 307.15 337.69C306.87 337.69 306.88 337.43 306.93 337.2C306.98 336.92 307.14 336.29 307.24 336.04C307.39 335.67 307.68 335.63 308.76 335.51C309.19 335.47 309.79 335.39 310.54 335.29L312.29 335.05L312.32 335.03ZM321.88 331.45C322.08 331.45 323.19 333.05 323.09 333.3C322.97 333.6 322.03 334.23 321.81 334.23C321.69 334.23 321.65 334.13 321.63 334.05C321.37 333.52 321.03 333.02 320.69 332.55C320.65 332.49 320.57 332.41 320.61 332.29C320.7 332.05 321.68 331.44 321.88 331.44V331.45ZM325.59 331.83C325.48 332.11 324.55 332.76 324.31 332.76C324.19 332.76 324.16 332.68 324.12 332.6C323.86 332.07 323.53 331.55 323.19 331.08C323.15 331.04 323.07 330.94 323.11 330.84C323.2 330.6 324.17 329.97 324.36 329.97C324.54 329.97 324.94 330.6 325.06 330.78C325.19 330.96 325.67 331.61 325.59 331.83Z" fill="#005ADC"/>
<path d="M340.29 338.74C340.63 338.68 340.94 338.41 340.99 338.07L341.16 337.16C341.18 337.06 341.3 336.37 341.39 335.8C341.46 335.42 341.49 335.11 341.51 335.07C341.58 334.89 341.77 334.85 341.92 334.83C342.33 334.79 342.9 334.75 343.29 334.75C343.51 334.75 343.83 334.77 343.72 335.05C343.69 335.13 343.62 335.21 343.57 335.27C343.5 335.35 343.44 335.41 343.4 335.49C343.32 335.69 343.15 336.6 343.11 336.85L342.93 337.74C342.86 338.06 343.07 338.23 343.39 338.17L346.85 337.52C347.06 337.48 348.65 337.17 348.67 337.17C348.99 337.17 349.59 338.02 349.44 338.39C349.38 338.55 349.23 338.67 349.07 338.77C348.34 339.3 347.55 340.05 346.88 340.68C346.53 341.01 345.26 342.22 344.95 342.44C344.78 342.58 344.63 342.66 344.45 342.66C344.17 342.66 343.28 342.25 343.43 341.87C343.49 341.71 343.71 341.55 343.84 341.44C344.13 341.22 345.83 339.78 345.9 339.61C345.95 339.49 345.89 339.39 345.77 339.39C345.69 339.39 345.6 339.41 345.54 339.43L343.09 339.88C342.84 339.92 342.55 340.14 342.45 340.39L342.39 340.53L341.6 344.55C341.52 344.98 341.28 346.52 341.16 346.84C341.06 347.1 340.87 347.16 340.52 347.25C340.28 347.31 339.66 347.43 339.46 347.43C339.1 347.43 339.16 347.05 339.39 346.13C339.46 345.81 339.56 345.4 339.66 344.93L340.45 340.91C340.5 340.63 340.35 340.48 340.09 340.48C340.05 340.48 339.96 340.5 339.94 340.5L338.4 340.8C338.12 340.86 336.24 341.21 336.16 341.21C335.94 341.21 335.91 341.09 335.9 340.91C335.91 340.73 336.06 339.96 336.14 339.77C336.27 339.45 336.48 339.42 337.72 339.22C338.01 339.18 338.35 339.12 338.78 339.04L340.27 338.76L340.29 338.74Z" fill="#005ADC"/>
<path d="M368.47 336.11C368.98 336.11 369.24 335.81 369.33 335.6L369.87 334.26C370.31 333.16 370.67 332.11 370.68 332.09C370.74 331.93 370.82 331.89 370.96 331.89C371.3 331.89 372.4 331.99 372.76 332.03C372.89 332.05 373.25 332.09 373.18 332.27C373.15 332.35 373.04 332.43 372.97 332.49C372.6 332.79 372.55 332.94 372.04 334.23L371.5 335.59C371.39 335.87 371.5 336.12 371.78 336.12H375.27C375.55 336.12 375.84 335.92 376 335.53C376.29 334.82 377.11 332.77 377.27 332.18C377.28 332.1 377.31 332.02 377.35 331.94C377.42 331.76 377.58 331.7 377.86 331.7C378.12 331.7 378.51 331.76 379.04 331.8C379.54 331.84 379.92 331.86 379.84 332.06C379.79 332.18 379.71 332.24 379.51 332.4C379.36 332.52 379 333.39 378.73 334.06L378.15 335.5C377.98 335.92 378.09 336.13 378.49 336.13H379.02C379.79 336.13 380.74 336.07 381.35 336.07C381.73 336.07 381.78 336.23 381.47 337C381.07 337.99 380.94 338.16 380.47 338.16C379.7 338.16 378.97 338.12 378.22 338.12H377.69C377.06 338.12 376.89 338.53 376.79 338.79C375.33 342.22 374.09 344.59 370.22 346.62C369.8 346.84 368.15 347.65 367.8 347.65C367.52 347.65 366.83 346.53 366.95 346.23C367.02 346.05 367.21 345.97 367.39 345.91C371.78 344.31 373.11 342.71 374.7 338.75C374.83 338.42 374.81 338.12 374.44 338.12H370.99C370.71 338.12 370.4 338.36 370.3 338.61L369.54 340.5C369.33 341.03 369.14 341.58 368.92 342.14C368.58 342.99 368.5 342.93 367.32 342.93C366.63 342.93 366.39 342.93 366.6 342.42C366.85 341.79 367.13 341.16 367.38 340.53L368.13 338.66C368.25 338.36 368.11 338.13 367.81 338.13H367.22C366.49 338.13 365.72 338.19 364.99 338.19C364.52 338.19 364.61 337.81 364.82 337.28C365.2 336.33 365.32 336.08 365.82 336.08C366.39 336.08 367.24 336.14 368.03 336.14H368.5L368.47 336.11ZM382.47 334.08C382.36 334.36 381.39 334.95 381.13 334.95C381.01 334.95 380.95 334.71 380.83 334.38C380.65 333.95 380.45 333.51 380.22 333.1C380.18 333.04 380.14 332.96 380.18 332.86C380.27 332.64 381.26 332.09 381.46 332.09C381.68 332.09 382.58 333.83 382.48 334.08H382.47ZM384.84 332.34C384.73 332.62 383.79 333.23 383.52 333.23C383.42 333.23 383.37 333.11 383.34 333.03C383.13 332.52 382.86 331.93 382.57 331.45C382.51 331.39 382.45 331.29 382.49 331.19C382.58 330.95 383.56 330.38 383.76 330.38C383.98 330.38 384.93 332.1 384.83 332.33L384.84 332.34Z" fill="#005ADC"/>
<path d="M399.37 338.48C399.01 339.37 398.69 340.28 398.33 341.16C398.08 341.77 397.88 341.85 396.95 341.85C396.02 341.85 395.79 341.79 396 341.26C396.37 340.33 396.79 339.43 397.17 338.5L398.84 334.34C399.05 333.81 399.22 333.29 399.41 332.78C399.46 332.66 399.49 332.54 399.53 332.43C399.58 332.29 399.65 332.23 399.79 332.23C399.99 332.23 401.14 332.41 401.4 332.45C401.78 332.53 402.06 332.53 401.99 332.71C401.96 332.79 401.87 332.87 401.8 332.93C401.53 333.17 401.37 333.46 401.12 334.07C401 334.37 400.88 334.72 400.7 335.17L399.37 338.48ZM407.41 337.71C406.85 339.11 406.27 340.51 405.51 341.91C404.5 343.79 403.24 345.26 401.27 346.49C400.82 346.77 398.9 347.87 398.55 347.87C398.25 347.87 397.29 346.88 397.43 346.53C397.5 346.35 397.94 346.2 398.13 346.12C400.47 345.11 402.16 343.99 403.39 341.76C404.09 340.5 404.65 339.22 405.15 337.95L406.87 333.67C407.05 333.22 407.23 332.76 407.36 332.31C407.38 332.21 407.41 332.07 407.45 331.98C407.51 331.82 407.61 331.78 407.77 331.78C408.1 331.78 409.3 331.9 409.64 331.98C409.78 332.02 410.01 332.04 409.94 332.22C409.89 332.34 409.79 332.4 409.65 332.5C409.48 332.62 409.3 333.03 409.17 333.35L407.41 337.73V337.71Z" fill="#005ADC"/>
<path d="M440.54 337.24C440.41 337.57 439.31 338.34 438.95 338.6C434.43 341.89 430.19 344.1 425.25 346.04C424.47 346.36 424.44 346.38 424.15 346.71C424.08 346.79 424 346.83 423.9 346.83C423.68 346.83 423.59 346.04 423.54 345.8C423.5 345.6 423.34 344.81 423.42 344.62C423.51 344.4 423.88 344.36 424.17 344.29C429.05 343.01 435.47 339.28 439.71 335.71C439.83 335.61 439.99 335.49 440.13 335.49C440.52 335.49 440.65 336.95 440.53 337.25L440.54 337.24ZM431.66 333.98C431.85 334.16 432.53 334.81 432.41 335.1C432.23 335.55 430.87 336.62 430.5 336.62C430.34 336.62 430.09 336.32 429.92 336.09C429.56 335.6 428.57 334.69 428.03 334.26C427.91 334.16 427.79 334.06 427.86 333.88C427.98 333.58 429.27 332.32 429.73 332.32C430.05 332.32 431.39 333.7 431.65 333.98H431.66Z" fill="#005ADC"/>
<path d="M466.82 334.39C467.1 334.39 467.35 334.39 467.63 334.33C467.72 334.31 467.78 334.29 467.86 334.29C468.29 334.29 468.82 335.49 468.69 335.81C468.66 335.89 468.5 336.03 468.26 336.28C468.06 336.5 467.74 336.79 467.38 337.19C463.92 340.96 460.87 343.82 456.28 346.17C455.74 346.45 453.45 347.57 453.03 347.57C452.58 347.57 451.74 346.6 451.88 346.25C451.96 346.05 452.26 345.93 452.42 345.88C456.16 344.48 459.48 342.45 462.59 339.57C463.09 339.1 465.07 337.18 465.26 336.69C465.36 336.43 465.03 336.41 464.76 336.41H461.01C460.6 336.45 460.52 336.45 459.97 336.94C459.4 337.47 456.02 340.19 455.51 340.19C455.25 340.19 454.11 339.44 454.29 339.01C454.34 338.89 454.45 338.81 454.58 338.73C457.24 337.17 460.84 334.09 462.67 331.69C462.83 331.49 463.02 331.22 463.18 331.22C463.32 331.22 463.97 331.61 464.33 331.83C464.42 331.89 464.49 331.93 464.54 331.95C464.74 332.05 465.04 332.17 464.97 332.35C464.92 332.47 464.69 332.55 464.57 332.61C464.28 332.75 464.14 332.91 463.8 333.26C463.67 333.4 463.53 333.54 463.33 333.73C463.23 333.83 463.1 333.97 463.05 334.09C462.97 334.29 463.09 334.39 463.26 334.41H466.79L466.82 334.39ZM470.96 334C470.84 334.3 469.86 334.83 469.62 334.83C469.5 334.83 469.49 334.71 469.45 334.61C469.29 334.02 469.1 333.43 468.86 332.87C468.83 332.79 468.79 332.71 468.83 332.61C468.92 332.37 469.93 331.88 470.15 331.88C470.37 331.88 471.05 333.77 470.96 333.99V334ZM473.48 332.78C473.36 333.08 472.39 333.59 472.15 333.59C472.01 333.59 471.99 333.49 471.97 333.39C471.8 332.82 471.61 332.17 471.36 331.65C471.32 331.59 471.28 331.49 471.32 331.41C471.42 331.15 472.43 330.66 472.65 330.66C472.85 330.66 473.58 332.51 473.48 332.77V332.78Z" fill="#005ADC"/>
</svg>
